# xmcd
#
# Track frame offsets:
#	150
#	18185
#	34885
#	49820
#	67476
#	81901
#	98213
#	115785
#	136120
#	157035
#	174750
#	192243
#	209866
#	227718
#	243654
#
# Disc length: 3491 seconds
#
# Revision: 0
# Processed by: cddbd v1.5.2PL0 Copyright (c) Steve Scherf et al.
# Submitted via: audiograbber 1.83.01
#
DISCID=d40da10f
DTITLE=COMPILATION - Cb60359
DYEAR=2006
DGENRE=
TTITLE0=Brooks and Dunn - Hillbilly Deluxe
TTITLE1=Gary Allan - A Feelin' Like That
TTITLE2=Miranda Lambert - Crazy Ex-Girl Friend
TTITLE3=Dierks Bentley - Long Trip Alone
TTITLE4=Josh Turner W/ Ralph Stanley - Me And God
TTITLE5=Sugarland - Setllin'
TTITLE6=Gary Nichols - I Can't Love You Anymore
TTITLE7=Brian Mccomas - All Comes Floodin' Down
TTITLE8=Martina Mcbride - Anyway
TTITLE9=Littie Big Town - Bones
TTITLE10=Aaron Tippin - He Believed
TTITLE11=Blue County - I Get To
TTITLE12=Katrina Elam - Love Is
TTITLE13=John Mellencamp - Our Country
TTITLE14=Rockie Lynne - More
EXTD=
EXTT0=
EXTT1=
EXTT2=
EXTT3=
EXTT4=
EXTT5=
EXTT6=
EXTT7=
EXTT8=
EXTT9=
EXTT10=
EXTT11=
EXTT12=
EXTT13=
EXTT14=
PLAYORDER=
